<svg width="2228" height="2227" xmlns="http://www.w3.org/2000/svg" xmlns:xlink="http://www.w3.org/1999/xlink" xml:space="preserve" overflow="hidden"><g transform="translate(-756 -62)"><text font-family="Arial,Arial_MSFontService,sans-serif" font-weight="700" font-size="64" transform="matrix(3.43827 0 0 3.43673 888.913 344)">Legende</text><path d="M1281.9 6199.86 1917.69 6199.86 1917.69 6423.25 1281.9 6423.25Z" fill="#85519D" transform="matrix(1.00045 0 0 1 -388.945 -4532.91)"/><path d="M1281.9 5883.68 1917.69 5883.68 1917.69 6107.07 1281.9 6107.07Z" fill="#C3ACD4" transform="matrix(1.00045 0 0 1 -388.945 -4532.91)"/><path d="M1281.9 5570.94 1917.69 5570.94 1917.69 5794.32 1281.9 5794.32Z" fill="#DAD0E1" transform="matrix(1.00045 0 0 1 -388.945 -4532.91)"/><text font-family="Arial,Arial_MSFontService,sans-serif" font-weight="400" font-size="50" transform="matrix(3.43827 0 0 3.43673 1649.62 1196)">ausgeprägt</text><text font-family="Arial,Arial_MSFontService,sans-serif" font-weight="400" font-size="50" transform="matrix(3.43827 0 0 3.43673 1649.62 1519)">vorhanden</text><text font-family="Arial,Arial_MSFontService,sans-serif" font-weight="400" font-size="50" transform="matrix(3.43827 0 0 3.43673 1649.62 1839)">i</text><text font-family="Arial,Arial_MSFontService,sans-serif" font-weight="400" font-size="50" transform="matrix(3.43827 0 0 3.43673 1689.02 1839)">n Ansätzen</text><text font-family="Arial,Arial_MSFontService,sans-serif" font-weight="400" font-size="50" transform="matrix(3.43827 0 0 3.43673 1636.64 2145)">keine Aussage</text><path d="M1551.68 6620.86C1551.68 6599.96 1568.61 6583.05 1589.49 6583.05 1610.37 6583.05 1627.29 6599.96 1627.29 6620.86 1627.29 6641.72 1610.37 6658.66 1589.49 6658.66 1568.61 6658.66 1551.68 6641.72 1551.68 6620.86Z" stroke="#172C51" stroke-width="15.7517" stroke-miterlimit="8" fill="#404040" fill-rule="evenodd" transform="matrix(1.00045 0 0 1 -388.945 -4532.91)"/><text font-family="Arial,Arial_MSFontService,sans-serif" font-weight="400" font-size="50" transform="matrix(3.43827 0 0 3.43673 1639.91 667)">Ausprägung in</text><text font-family="Arial,Arial_MSFontService,sans-serif" font-weight="400" font-size="50" transform="matrix(3.43827 0 0 3.43673 1639.91 877)">Unterdimensio</text><text font-family="Arial,Arial_MSFontService,sans-serif" font-weight="400" font-size="50" transform="matrix(3.43827 0 0 3.43673 2758.78 877)">n</text><path d="M1374.69 5192.35 1821.19 5192.35 1821.19 5227.81 1374.69 5227.81ZM1374.69 5263.25C1345.33 5263.25 1321.53 5239.43 1321.53 5210.08 1321.53 5180.73 1345.33 5156.91 1374.69 5156.91 1404.05 5156.91 1427.85 5180.73 1427.85 5210.08 1427.85 5239.43 1404.05 5263.25 1374.69 5263.25ZM1821.19 5156.91C1850.56 5156.91 1874.36 5180.73 1874.36 5210.08 1874.36 5239.43 1850.55 5263.25 1821.19 5263.25 1791.83 5263.25 1768.04 5239.43 1768.04 5210.08 1768.04 5180.73 1791.83 5156.91 1821.19 5156.91Z" fill="#262626" transform="matrix(1.00045 0 0 1 -388.945 -4532.91)"/><rect x="891" y="1033" width="641" height="233" fill="#9E8BB4"/><rect x="891" y="1342" width="642" height="233" fill="#BEB2CD"/><rect x="891" y="1661" width="641" height="233" fill="#DFD8E6"/></g></svg>