<svg width="3878" height="2475" xmlns="http://www.w3.org/2000/svg" xmlns:xlink="http://www.w3.org/1999/xlink" xml:space="preserve" overflow="hidden"><g transform="translate(-261 0)"><text fill="#404040" font-family="Calibri,Calibri_MSFontService,sans-serif" font-weight="700" font-size="73" transform="matrix(3.0179 0 0 3.01829 1609.9 839)">Dimension ausgeprägt </text><text fill="#404040" font-family="Calibri,Calibri_MSFontService,sans-serif" font-weight="700" font-size="73" transform="matrix(3.0179 0 0 3.01829 3695.26 839)">(%)</text><text fill="#404040" font-family="Calibri,Calibri_MSFontService,sans-serif" font-weight="700" font-size="73" transform="matrix(3.0179 0 0 3.01829 1611.71 1458)">Dimension </text><text fill="#404040" font-family="Calibri,Calibri_MSFontService,sans-serif" font-weight="700" font-size="73" transform="matrix(3.0179 0 0 3.01829 2645.66 1458)">vorhanden</text><text fill="#404040" font-family="Calibri,Calibri_MSFontService,sans-serif" font-weight="700" font-size="73" transform="matrix(3.0179 0 0 3.01829 3694.83 1458)">(%)</text><text fill="#404040" font-family="Calibri,Calibri_MSFontService,sans-serif" font-weight="700" font-size="73" transform="matrix(3.0179 0 0 3.01829 1621.71 2034)">Dimension in Ansätzen </text><text fill="#404040" font-family="Calibri,Calibri_MSFontService,sans-serif" font-weight="700" font-size="73" transform="matrix(3.0179 0 0 3.01829 3758.38 2034)">/ </text><text fill="#404040" font-family="Calibri,Calibri_MSFontService,sans-serif" font-weight="700" font-size="73" transform="matrix(3.0179 0 0 3.01829 1621.71 2285)">k</text><text fill="#404040" font-family="Calibri,Calibri_MSFontService,sans-serif" font-weight="700" font-size="73" transform="matrix(3.0179 0 0 3.01829 1721.09 2285)">eine Aussage</text><text fill="#404040" font-family="Calibri,Calibri_MSFontService,sans-serif" font-weight="700" font-size="73" transform="matrix(3.0179 0 0 3.01829 2968.81 2285)">(%)</text><path d="M419.488 4650.58 1460.66 4650.58 1460.66 5106.29 419.488 5106.29Z" fill="#538335" transform="matrix(1 0 0 1.00013 31.6396 -4071.68)"/><path d="M419.488 5275.29 1460.66 5275.29 1460.66 5734.01 419.488 5734.01Z" fill="#9FAF7B" transform="matrix(1 0 0 1.00013 31.6396 -4071.68)"/><path d="M419.488 5942.24 1460.66 5942.24 1460.66 6397.95 419.488 6397.95Z" fill="#D9DFCA" transform="matrix(1 0 0 1.00013 31.6396 -4071.68)"/><text fill="#404040" font-family="Calibri,Calibri_MSFontService,sans-serif" font-weight="700" font-size="101" transform="matrix(3.0179 0 0 3.01829 445.913 377)">Legende</text><rect x="438" y="570" width="1061" height="466" fill="#7DBA88"/><rect x="438" y="1203" width="1061" height="465" fill="#A8D1AF"/><rect x="438" y="1860" width="1061" height="466" fill="#D4E8D7"/></g></svg>